<?xml version="1.0" standalone="no"?>
<!DOCTYPE svg PUBLIC "-//W3C//DTD SVG 20010904//EN"
 "http://www.w3.org/TR/2001/REC-SVG-20010904/DTD/svg10.dtd">
<svg version="1.0" xmlns="http://www.w3.org/2000/svg"
 width="1280.000000pt" height="1026.000000pt" viewBox="0 0 1280.000000 1026.000000"
 preserveAspectRatio="xMidYMid meet">
<metadata>
Created by potrace 1.15, written by Peter Selinger 2001-2017
</metadata>
<g transform="translate(0.000000,1026.000000) scale(0.100000,-0.100000)"
fill="#000000" stroke="none">
<path d="M2845 10250 c-75 -15 -170 -51 -238 -91 -64 -38 -170 -131 -192 -169
-5 -10 -24 -42 -42 -72 -139 -235 -99 -541 98 -745 47 -49 175 -143 204 -150
6 -1 37 -11 69 -23 33 -11 65 -20 72 -20 25 0 22 -16 -12 -70 -61 -96 -151
-271 -197 -385 -160 -394 -205 -788 -131 -1155 36 -175 149 -453 245 -600 52
-80 83 -139 77 -146 -3 -3 -32 -1 -64 5 -79 15 -202 14 -305 -3 -85 -14 -266
-59 -304 -76 -11 -4 -60 -25 -110 -45 -49 -21 -101 -43 -115 -50 -14 -7 -38
-19 -55 -26 -90 -41 -332 -195 -505 -323 -197 -145 -609 -546 -702 -682 -13
-19 -26 -34 -29 -34 -4 0 -21 -22 -39 -50 -18 -27 -36 -50 -41 -50 -5 0 -9 -4
-9 -10 0 -5 -6 -18 -14 -27 -30 -36 -106 -141 -106 -145 0 -3 -25 -45 -55 -94
-30 -49 -62 -105 -72 -124 -9 -19 -29 -55 -43 -80 -14 -25 -41 -81 -59 -125
-19 -44 -42 -98 -51 -120 -95 -221 -140 -533 -106 -720 44 -234 182 -397 399
-469 160 -53 413 -37 656 43 165 55 300 117 479 221 40 23 75 40 78 37 3 -3
-19 -48 -48 -99 -54 -94 -178 -357 -178 -377 0 -6 -3 -11 -8 -11 -4 0 -13 -19
-19 -42 -6 -24 -27 -94 -47 -157 -50 -157 -85 -337 -97 -504 -9 -123 -14 -148
-39 -197 -187 -370 -241 -869 -134 -1237 38 -131 118 -303 176 -378 253 -329
590 -513 1079 -592 159 -25 654 -25 809 0 143 23 288 59 390 97 113 43 148 45
271 21 457 -89 914 -120 1309 -87 446 37 642 55 766 71 118 15 135 15 165 2
413 -183 1008 -233 1491 -126 209 46 415 130 565 229 43 29 83 58 88 64 6 6
29 26 53 45 37 29 192 202 192 214 0 3 19 36 42 73 111 183 177 430 182 684 8
336 -65 651 -225 973 -11 24 -19 60 -19 92 0 252 -123 850 -231 1122 -39 98
-151 315 -212 411 -26 40 -47 76 -47 81 0 5 -4 11 -8 13 -16 6 -105 153 -104
171 0 10 19 62 42 115 204 474 280 966 200 1287 -22 89 -83 226 -111 251 -11
10 -19 21 -19 26 0 15 -77 80 -141 119 l-59 37 67 38 c146 81 916 464 1053
524 80 34 163 71 185 80 194 84 549 190 637 190 36 0 38 -2 32 -25 -10 -41 13
-75 116 -170 54 -49 201 -187 327 -306 372 -353 622 -560 803 -663 113 -64
242 -150 430 -287 394 -285 896 -631 1093 -753 208 -128 300 -164 337 -131 47
42 17 96 -164 298 -67 75 -372 359 -581 542 -476 416 -1052 865 -1446 1127
-323 216 -515 317 -675 358 -156 40 -121 45 290 43 199 -1 440 -7 536 -13 228
-13 670 -13 670 0 0 5 14 16 30 25 17 9 30 23 30 33 0 20 -27 25 -420 91 -574
96 -1015 122 -1313 76 -109 -16 -305 -59 -382 -82 -558 -169 -1106 -415 -1757
-789 -186 -107 -228 -126 -228 -105 0 13 -149 161 -208 206 -29 21 -52 43 -52
48 0 5 33 48 74 95 257 303 409 617 456 941 20 133 8 407 -25 561 -26 124 -89
326 -140 449 -45 109 -182 373 -197 379 -5 2 -8 8 -8 14 0 6 -11 26 -25 44
-14 18 -25 37 -25 43 0 6 19 15 43 21 48 12 101 28 137 43 14 6 27 11 30 12
40 13 83 42 139 90 93 82 157 172 196 280 27 72 30 92 30 205 0 97 -4 137 -19
180 -40 117 -109 227 -182 289 -22 18 -48 40 -59 50 -33 28 -165 88 -232 105
-244 63 -485 -2 -668 -180 -69 -67 -137 -182 -158 -266 -4 -16 -12 -28 -18
-28 -5 0 -44 24 -87 54 -100 69 -362 221 -362 210 0 -4 -10 0 -22 8 -51 33
-291 122 -413 153 -102 27 -264 54 -393 65 -345 32 -785 -59 -1146 -236 -16
-8 -35 -14 -43 -14 -7 0 -13 -4 -13 -10 0 -5 -9 -10 -19 -10 -11 0 -21 -3 -23
-7 -1 -5 -32 -23 -68 -42 -36 -19 -96 -55 -135 -80 -109 -71 -111 -71 -134 0
-33 104 -138 230 -251 305 -140 92 -349 135 -505 104z"/>
<path d="M10840 8449 c-59 -10 -206 -52 -255 -73 -16 -7 -79 -33 -139 -56
-234 -93 -760 -369 -1142 -601 -643 -389 -1135 -735 -1383 -974 -117 -113
-150 -162 -151 -222 0 -32 1 -33 43 -33 35 0 69 15 192 85 165 95 1179 604
1510 759 607 285 985 448 1157 500 316 95 712 171 1588 301 362 54 460 77 479
114 27 49 -19 76 -161 96 -203 28 -616 60 -1113 85 -99 5 -250 14 -335 20
-180 11 -215 11 -290 -1z"/>
<path d="M10525 7570 c-134 -11 -226 -41 -269 -89 -17 -19 -18 -22 -2 -45 9
-14 24 -29 33 -34 17 -9 310 -75 538 -122 195 -40 293 -52 505 -60 118 -5 330
-18 470 -29 593 -48 830 -53 883 -18 53 35 24 82 -72 118 -74 27 -292 82 -411
103 -52 9 -113 21 -135 26 -73 17 -408 69 -600 94 -384 50 -751 72 -940 56z"/>
<path d="M9179 6569 c-13 -28 -14 -43 -3 -104 7 -39 33 -229 59 -421 130 -983
229 -1496 351 -1818 35 -92 527 -1073 690 -1376 370 -687 642 -1097 795 -1199
74 -50 122 -54 163 -16 34 31 46 63 56 154 36 318 -190 1104 -639 2224 -490
1222 -975 2177 -1270 2500 -31 34 -103 73 -152 82 -32 6 -36 4 -50 -26z"/>
</g>
</svg>
